# Blender 4.1.0
# www.blender.org
mtllib cat.mtl
o cube
v 0.625000 6.250000 6.875000
v 0.625000 6.250000 -3.125000
v 0.625000 2.500000 6.875000
v 0.625000 2.500000 -3.125000
v -1.875000 6.250000 -3.125000
v -1.875000 6.250000 6.875000
v -1.875000 2.500000 -3.125000
v -1.875000 2.500000 6.875000
v -1.875000 6.250000 -3.125000
v 0.625000 6.250000 -3.125000
v -1.875000 6.250000 6.875000
v 0.625000 6.250000 6.875000
v -1.875000 2.500000 6.875000
v 0.625000 2.500000 6.875000
v -1.875000 2.500000 -3.125000
v 0.625000 2.500000 -3.125000
v -1.875000 6.250000 6.875000
v 0.625000 6.250000 6.875000
v -1.875000 2.500000 6.875000
v 0.625000 2.500000 6.875000
v 0.625000 6.250000 -3.125000
v -1.875000 6.250000 -3.125000
v 0.625000 2.500000 -3.125000
v -1.875000 2.500000 -3.125000
vn 1.0000 -0.0000 -0.0000
vn -1.0000 -0.0000 -0.0000
vn -0.0000 1.0000 -0.0000
vn -0.0000 -1.0000 -0.0000
vn -0.0000 -0.0000 1.0000
vn -0.0000 -0.0000 -1.0000
vt 0.000244 0.250244
vt 0.000244 0.343506
vt 0.249756 0.250244
vt 0.249756 0.343506
vt 0.312744 0.250244
vt 0.312744 0.343506
vt 0.562256 0.250244
vt 0.562256 0.343506
vt 0.312256 0.249756
vt 0.312256 0.000244
vt 0.250244 0.249756
vt 0.250244 0.000244
vt 0.374756 0.000244
vt 0.374756 0.249756
vt 0.312744 0.000244
vt 0.312744 0.249756
vt 0.562744 0.250244
vt 0.562744 0.343506
vt 0.624756 0.250244
vt 0.624756 0.343506
vt 0.250244 0.250244
vt 0.250244 0.343506
vt 0.312256 0.250244
vt 0.312256 0.343506
s 0
usemtl Cat
f 1/1/1 3/2/1 2/3/1
f 3/2/1 4/4/1 2/3/1
f 5/5/2 7/6/2 6/7/2
f 7/6/2 8/8/2 6/7/2
f 9/9/3 11/10/3 10/11/3
f 11/10/3 12/12/3 10/11/3
f 13/13/4 15/14/4 14/15/4
f 15/14/4 16/16/4 14/15/4
f 17/17/5 19/18/5 18/19/5
f 19/18/5 20/20/5 18/19/5
f 21/21/6 23/22/6 22/23/6
f 23/22/6 24/24/6 22/23/6
o cube.001
v 0.937500 6.875000 -3.125000
v 0.937500 6.875000 -6.250000
v 0.937500 4.375000 -3.125000
v 0.937500 4.375000 -6.250000
v -2.187500 6.875000 -6.250000
v -2.187500 6.875000 -3.125000
v -2.187500 4.375000 -6.250000
v -2.187500 4.375000 -3.125000
v -2.187500 6.875000 -6.250000
v 0.937500 6.875000 -6.250000
v -2.187500 6.875000 -3.125000
v 0.937500 6.875000 -3.125000
v -2.187500 4.375000 -3.125000
v 0.937500 4.375000 -3.125000
v -2.187500 4.375000 -6.250000
v 0.937500 4.375000 -6.250000
v -2.187500 6.875000 -3.125000
v 0.937500 6.875000 -3.125000
v -2.187500 4.375000 -3.125000
v 0.937500 4.375000 -3.125000
v 0.937500 6.875000 -6.250000
v -2.187500 6.875000 -6.250000
v 0.937500 4.375000 -6.250000
v -2.187500 4.375000 -6.250000
vn 1.0000 -0.0000 -0.0000
vn -1.0000 -0.0000 -0.0000
vn -0.0000 1.0000 -0.0000
vn -0.0000 -1.0000 -0.0000
vn -0.0000 -0.0000 1.0000
vn -0.0000 -0.0000 -1.0000
vt 0.000244 0.422119
vt 0.000244 0.484131
vt 0.077881 0.422119
vt 0.077881 0.484131
vt 0.156494 0.422119
vt 0.156494 0.484131
vt 0.234131 0.422119
vt 0.234131 0.484131
vt 0.156006 0.421631
vt 0.156006 0.343994
vt 0.078369 0.421631
vt 0.078369 0.343994
vt 0.234131 0.343994
vt 0.234131 0.421631
vt 0.156494 0.343994
vt 0.156494 0.421631
vt 0.234619 0.422119
vt 0.234619 0.484131
vt 0.312256 0.422119
vt 0.312256 0.484131
vt 0.078369 0.422119
vt 0.078369 0.484131
vt 0.156006 0.422119
vt 0.156006 0.484131
s 0
usemtl Cat
f 25/25/7 27/26/7 26/27/7
f 27/26/7 28/28/7 26/27/7
f 29/29/8 31/30/8 30/31/8
f 31/30/8 32/32/8 30/31/8
f 33/33/9 35/34/9 34/35/9
f 35/34/9 36/36/9 34/35/9
f 37/37/10 39/38/10 38/39/10
f 39/38/10 40/40/10 38/39/10
f 41/41/11 43/42/11 42/43/11
f 43/42/11 44/44/11 42/43/11
f 45/45/12 47/46/12 46/47/12
f 47/46/12 48/48/12 46/47/12
o cube.002
v -1.406250 7.500000 -3.125000
v -1.406250 7.500000 -4.375000
v -1.406250 6.875000 -3.125000
v -1.406250 6.875000 -4.375000
v -2.031250 7.500000 -4.375000
v -2.031250 7.500000 -3.125000
v -2.031250 6.875000 -4.375000
v -2.031250 6.875000 -3.125000
v -2.031250 7.500000 -4.375000
v -1.406250 7.500000 -4.375000
v -2.031250 7.500000 -3.125000
v -1.406250 7.500000 -3.125000
v -2.031250 6.875000 -3.125000
v -1.406250 6.875000 -3.125000
v -2.031250 6.875000 -4.375000
v -1.406250 6.875000 -4.375000
v -2.031250 7.500000 -3.125000
v -1.406250 7.500000 -3.125000
v -2.031250 6.875000 -3.125000
v -1.406250 6.875000 -3.125000
v -1.406250 7.500000 -4.375000
v -2.031250 7.500000 -4.375000
v -1.406250 6.875000 -4.375000
v -2.031250 6.875000 -4.375000
vn 1.0000 -0.0000 -0.0000
vn -1.0000 -0.0000 -0.0000
vn -0.0000 1.0000 -0.0000
vn -0.0000 -1.0000 -0.0000
vn -0.0000 -0.0000 1.0000
vn -0.0000 -0.0000 -1.0000
vt 0.000244 0.031494
vt 0.000244 0.046631
vt 0.031006 0.031494
vt 0.031006 0.046631
vt 0.047119 0.031494
vt 0.047119 0.046631
vt 0.077881 0.031494
vt 0.077881 0.046631
vt 0.046631 0.031006
vt 0.046631 0.000244
vt 0.031494 0.031006
vt 0.031494 0.000244
vt 0.062256 0.000244
vt 0.062256 0.031006
vt 0.047119 0.000244
vt 0.047119 0.031006
vt 0.078369 0.031494
vt 0.078369 0.046631
vt 0.093506 0.031494
vt 0.093506 0.046631
vt 0.031494 0.031494
vt 0.031494 0.046631
vt 0.046631 0.031494
vt 0.046631 0.046631
s 0
usemtl Cat
f 49/49/13 51/50/13 50/51/13
f 51/50/13 52/52/13 50/51/13
f 53/53/14 55/54/14 54/55/14
f 55/54/14 56/56/14 54/55/14
f 57/57/15 59/58/15 58/59/15
f 59/58/15 60/60/15 58/59/15
f 61/61/16 63/62/16 62/63/16
f 63/62/16 64/64/16 62/63/16
f 65/65/17 67/66/17 66/67/17
f 67/66/17 68/68/17 66/67/17
f 69/69/18 71/70/18 70/71/18
f 71/70/18 72/72/18 70/71/18
o cube.003
v 0.781250 7.500000 -3.125000
v 0.781250 7.500000 -4.375000
v 0.781250 6.875000 -3.125000
v 0.781250 6.875000 -4.375000
v 0.156250 7.500000 -4.375000
v 0.156250 7.500000 -3.125000
v 0.156250 6.875000 -4.375000
v 0.156250 6.875000 -3.125000
v 0.156250 7.500000 -4.375000
v 0.781250 7.500000 -4.375000
v 0.156250 7.500000 -3.125000
v 0.781250 7.500000 -3.125000
v 0.156250 6.875000 -3.125000
v 0.781250 6.875000 -3.125000
v 0.156250 6.875000 -4.375000
v 0.781250 6.875000 -4.375000
v 0.156250 7.500000 -3.125000
v 0.781250 7.500000 -3.125000
v 0.156250 6.875000 -3.125000
v 0.781250 6.875000 -3.125000
v 0.781250 7.500000 -4.375000
v 0.156250 7.500000 -4.375000
v 0.781250 6.875000 -4.375000
v 0.156250 6.875000 -4.375000
vn 1.0000 -0.0000 -0.0000
vn -1.0000 -0.0000 -0.0000
vn -0.0000 1.0000 -0.0000
vn -0.0000 -1.0000 -0.0000
vn -0.0000 -0.0000 1.0000
vn -0.0000 -0.0000 -1.0000
vt 0.000244 0.078369
vt 0.000244 0.093506
vt 0.031006 0.078369
vt 0.031006 0.093506
vt 0.047119 0.078369
vt 0.047119 0.093506
vt 0.077881 0.078369
vt 0.077881 0.093506
vt 0.046631 0.077881
vt 0.046631 0.047119
vt 0.031494 0.077881
vt 0.031494 0.047119
vt 0.062256 0.047119
vt 0.062256 0.077881
vt 0.047119 0.047119
vt 0.047119 0.077881
vt 0.078369 0.078369
vt 0.078369 0.093506
vt 0.093506 0.078369
vt 0.093506 0.093506
vt 0.031494 0.078369
vt 0.031494 0.093506
vt 0.046631 0.078369
vt 0.046631 0.093506
s 0
usemtl Cat
f 73/73/19 75/74/19 74/75/19
f 75/74/19 76/76/19 74/75/19
f 77/77/20 79/78/20 78/79/20
f 79/78/20 80/80/20 78/79/20
f 81/81/21 83/82/21 82/83/21
f 83/82/21 84/84/21 82/83/21
f 85/85/22 87/86/22 86/87/22
f 87/86/22 88/88/22 86/87/22
f 89/89/23 91/90/23 90/91/23
f 91/90/23 92/92/23 90/91/23
f 93/93/24 95/94/24 94/95/24
f 95/94/24 96/96/24 94/95/24
o cube.004
v 0.312500 5.625000 -6.250000
v 0.312500 5.625000 -6.875000
v 0.312500 4.375000 -6.250000
v 0.312500 4.375000 -6.875000
v -1.562500 5.625000 -6.875000
v -1.562500 5.625000 -6.250000
v -1.562500 4.375000 -6.875000
v -1.562500 4.375000 -6.250000
v -1.562500 5.625000 -6.875000
v 0.312500 5.625000 -6.875000
v -1.562500 5.625000 -6.250000
v 0.312500 5.625000 -6.250000
v -1.562500 4.375000 -6.250000
v 0.312500 4.375000 -6.250000
v -1.562500 4.375000 -6.875000
v 0.312500 4.375000 -6.875000
v -1.562500 5.625000 -6.250000
v 0.312500 5.625000 -6.250000
v -1.562500 4.375000 -6.250000
v 0.312500 4.375000 -6.250000
v 0.312500 5.625000 -6.875000
v -1.562500 5.625000 -6.875000
v 0.312500 4.375000 -6.875000
v -1.562500 4.375000 -6.875000
vn 1.0000 -0.0000 -0.0000
vn -1.0000 -0.0000 -0.0000
vn -0.0000 1.0000 -0.0000
vn -0.0000 -1.0000 -0.0000
vn -0.0000 -0.0000 1.0000
vn -0.0000 -0.0000 -1.0000
vt 0.406494 0.109619
vt 0.406494 0.140381
vt 0.421631 0.109619
vt 0.421631 0.140381
vt 0.468994 0.109619
vt 0.468994 0.140381
vt 0.484131 0.109619
vt 0.484131 0.140381
vt 0.468506 0.109131
vt 0.468506 0.093994
vt 0.422119 0.109131
vt 0.422119 0.093994
vt 0.515381 0.093994
vt 0.515381 0.109131
vt 0.468994 0.093994
vt 0.468994 0.109131
vt 0.484619 0.109619
vt 0.484619 0.140381
vt 0.531006 0.109619
vt 0.531006 0.140381
vt 0.422119 0.109619
vt 0.422119 0.140381
vt 0.468506 0.109619
vt 0.468506 0.140381
s 0
usemtl Cat
f 97/97/25 99/98/25 98/99/25
f 99/98/25 100/100/25 98/99/25
f 101/101/26 103/102/26 102/103/26
f 103/102/26 104/104/26 102/103/26
f 105/105/27 107/106/27 106/107/27
f 107/106/27 108/108/27 106/107/27
f 109/109/28 111/110/28 110/111/28
f 111/110/28 112/112/28 110/111/28
f 113/113/29 115/114/29 114/115/29
f 115/114/29 116/116/29 114/115/29
f 117/117/30 119/118/30 118/119/30
f 119/118/30 120/120/30 118/119/30
o cube.005
v -0.781250 2.500000 -0.625000
v -0.781250 2.500000 -1.875000
v -0.781250 0.000000 -0.625000
v -0.781250 0.000000 -1.875000
v -2.031250 2.500000 -1.875000
v -2.031250 2.500000 -0.625000
v -2.031250 0.000000 -1.875000
v -2.031250 0.000000 -0.625000
v -2.031250 2.500000 -1.875000
v -0.781250 2.500000 -1.875000
v -2.031250 2.500000 -0.625000
v -0.781250 2.500000 -0.625000
v -2.031250 0.000000 -0.625000
v -0.781250 0.000000 -0.625000
v -2.031250 0.000000 -1.875000
v -0.781250 0.000000 -1.875000
v -2.031250 2.500000 -0.625000
v -0.781250 2.500000 -0.625000
v -2.031250 0.000000 -0.625000
v -0.781250 0.000000 -0.625000
v -0.781250 2.500000 -1.875000
v -2.031250 2.500000 -1.875000
v -0.781250 0.000000 -1.875000
v -2.031250 0.000000 -1.875000
vn 1.0000 -0.0000 -0.0000
vn -1.0000 -0.0000 -0.0000
vn -0.0000 1.0000 -0.0000
vn -0.0000 -1.0000 -0.0000
vn -0.0000 -0.0000 1.0000
vn -0.0000 -0.0000 -1.0000
vt 0.000244 0.156494
vt 0.000244 0.218506
vt 0.031006 0.156494
vt 0.031006 0.218506
vt 0.062744 0.156494
vt 0.062744 0.218506
vt 0.093506 0.156494
vt 0.093506 0.218506
vt 0.062256 0.156006
vt 0.062256 0.125244
vt 0.031494 0.156006
vt 0.031494 0.125244
vt 0.093506 0.125244
vt 0.093506 0.156006
vt 0.062744 0.125244
vt 0.062744 0.156006
vt 0.093994 0.156494
vt 0.093994 0.218506
vt 0.124756 0.156494
vt 0.124756 0.218506
vt 0.031494 0.156494
vt 0.031494 0.218506
vt 0.062256 0.156494
vt 0.062256 0.218506
s 0
usemtl Cat
f 121/121/31 123/122/31 122/123/31
f 123/122/31 124/124/31 122/123/31
f 125/125/32 127/126/32 126/127/32
f 127/126/32 128/128/32 126/127/32
f 129/129/33 131/130/33 130/131/33
f 131/130/33 132/132/33 130/131/33
f 133/133/34 135/134/34 134/135/34
f 135/134/34 136/136/34 134/135/34
f 137/137/35 139/138/35 138/139/35
f 139/138/35 140/140/35 138/139/35
f 141/141/36 143/142/36 142/143/36
f 143/142/36 144/144/36 142/143/36
o cube.006
v 0.781250 2.500000 -0.625000
v 0.781250 2.500000 -1.875000
v 0.781250 0.000000 -0.625000
v 0.781250 0.000000 -1.875000
v -0.468750 2.500000 -1.875000
v -0.468750 2.500000 -0.625000
v -0.468750 0.000000 -1.875000
v -0.468750 0.000000 -0.625000
v -0.468750 2.500000 -1.875000
v 0.781250 2.500000 -1.875000
v -0.468750 2.500000 -0.625000
v 0.781250 2.500000 -0.625000
v -0.468750 0.000000 -0.625000
v 0.781250 0.000000 -0.625000
v -0.468750 0.000000 -1.875000
v 0.781250 0.000000 -1.875000
v -0.468750 2.500000 -0.625000
v 0.781250 2.500000 -0.625000
v -0.468750 0.000000 -0.625000
v 0.781250 0.000000 -0.625000
v 0.781250 2.500000 -1.875000
v -0.468750 2.500000 -1.875000
v 0.781250 0.000000 -1.875000
v -0.468750 0.000000 -1.875000
vn 1.0000 -0.0000 -0.0000
vn -1.0000 -0.0000 -0.0000
vn -0.0000 1.0000 -0.0000
vn -0.0000 -1.0000 -0.0000
vn -0.0000 -0.0000 1.0000
vn -0.0000 -0.0000 -1.0000
vt 0.125244 0.156494
vt 0.125244 0.218506
vt 0.156006 0.156494
vt 0.156006 0.218506
vt 0.187744 0.156494
vt 0.187744 0.218506
vt 0.218506 0.156494
vt 0.218506 0.218506
vt 0.187256 0.156006
vt 0.187256 0.125244
vt 0.156494 0.156006
vt 0.156494 0.125244
vt 0.218506 0.125244
vt 0.218506 0.156006
vt 0.187744 0.125244
vt 0.187744 0.156006
vt 0.218994 0.156494
vt 0.218994 0.218506
vt 0.249756 0.156494
vt 0.249756 0.218506
vt 0.156494 0.156494
vt 0.156494 0.218506
vt 0.187256 0.156494
vt 0.187256 0.218506
s 0
usemtl Cat
f 145/145/37 147/146/37 146/147/37
f 147/146/37 148/148/37 146/147/37
f 149/149/38 151/150/38 150/151/38
f 151/150/38 152/152/38 150/151/38
f 153/153/39 155/154/39 154/155/39
f 155/154/39 156/156/39 154/155/39
f 157/157/40 159/158/40 158/159/40
f 159/158/40 160/160/40 158/159/40
f 161/161/41 163/162/41 162/163/41
f 163/162/41 164/164/41 162/163/41
f 165/165/42 167/166/42 166/167/42
f 167/166/42 168/168/42 166/167/42
o cube.007
v -0.781250 2.500000 6.250000
v -0.781250 2.500000 5.000000
v -0.781250 0.000000 6.250000
v -0.781250 0.000000 5.000000
v -2.031250 2.500000 5.000000
v -2.031250 2.500000 6.250000
v -2.031250 0.000000 5.000000
v -2.031250 0.000000 6.250000
v -2.031250 2.500000 5.000000
v -0.781250 2.500000 5.000000
v -2.031250 2.500000 6.250000
v -0.781250 2.500000 6.250000
v -2.031250 0.000000 6.250000
v -0.781250 0.000000 6.250000
v -2.031250 0.000000 5.000000
v -0.781250 0.000000 5.000000
v -2.031250 2.500000 6.250000
v -0.781250 2.500000 6.250000
v -2.031250 0.000000 6.250000
v -0.781250 0.000000 6.250000
v -0.781250 2.500000 5.000000
v -2.031250 2.500000 5.000000
v -0.781250 0.000000 5.000000
v -2.031250 0.000000 5.000000
vn 1.0000 -0.0000 -0.0000
vn -1.0000 -0.0000 -0.0000
vn -0.0000 1.0000 -0.0000
vn -0.0000 -1.0000 -0.0000
vn -0.0000 -0.0000 1.0000
vn -0.0000 -0.0000 -1.0000
vt 0.312744 0.375244
vt 0.312744 0.437256
vt 0.343506 0.375244
vt 0.343506 0.437256
vt 0.375244 0.375244
vt 0.375244 0.437256
vt 0.406006 0.375244
vt 0.406006 0.437256
vt 0.374756 0.374756
vt 0.374756 0.343994
vt 0.343994 0.374756
vt 0.343994 0.343994
vt 0.406006 0.343994
vt 0.406006 0.374756
vt 0.375244 0.343994
vt 0.375244 0.374756
vt 0.406494 0.375244
vt 0.406494 0.437256
vt 0.437256 0.375244
vt 0.437256 0.437256
vt 0.343994 0.375244
vt 0.343994 0.437256
vt 0.374756 0.375244
vt 0.374756 0.437256
s 0
usemtl Cat
f 169/169/43 171/170/43 170/171/43
f 171/170/43 172/172/43 170/171/43
f 173/173/44 175/174/44 174/175/44
f 175/174/44 176/176/44 174/175/44
f 177/177/45 179/178/45 178/179/45
f 179/178/45 180/180/45 178/179/45
f 181/181/46 183/182/46 182/183/46
f 183/182/46 184/184/46 182/183/46
f 185/185/47 187/186/47 186/187/47
f 187/186/47 188/188/47 186/187/47
f 189/189/48 191/190/48 190/191/48
f 191/190/48 192/192/48 190/191/48
o cube.008
v 0.781250 2.500000 6.250000
v 0.781250 2.500000 5.000000
v 0.781250 0.000000 6.250000
v 0.781250 0.000000 5.000000
v -0.468750 2.500000 5.000000
v -0.468750 2.500000 6.250000
v -0.468750 0.000000 5.000000
v -0.468750 0.000000 6.250000
v -0.468750 2.500000 5.000000
v 0.781250 2.500000 5.000000
v -0.468750 2.500000 6.250000
v 0.781250 2.500000 6.250000
v -0.468750 0.000000 6.250000
v 0.781250 0.000000 6.250000
v -0.468750 0.000000 5.000000
v 0.781250 0.000000 5.000000
v -0.468750 2.500000 6.250000
v 0.781250 2.500000 6.250000
v -0.468750 0.000000 6.250000
v 0.781250 0.000000 6.250000
v 0.781250 2.500000 5.000000
v -0.468750 2.500000 5.000000
v 0.781250 0.000000 5.000000
v -0.468750 0.000000 5.000000
vn 1.0000 -0.0000 -0.0000
vn -1.0000 -0.0000 -0.0000
vn -0.0000 1.0000 -0.0000
vn -0.0000 -1.0000 -0.0000
vn -0.0000 -0.0000 1.0000
vn -0.0000 -0.0000 -1.0000
vt 0.406494 0.031494
vt 0.406494 0.093506
vt 0.437256 0.031494
vt 0.437256 0.093506
vt 0.468994 0.031494
vt 0.468994 0.093506
vt 0.499756 0.031494
vt 0.499756 0.093506
vt 0.468506 0.031006
vt 0.468506 0.000244
vt 0.437744 0.031006
vt 0.437744 0.000244
vt 0.499756 0.000244
vt 0.499756 0.031006
vt 0.468994 0.000244
vt 0.468994 0.031006
vt 0.500244 0.031494
vt 0.500244 0.093506
vt 0.531006 0.031494
vt 0.531006 0.093506
vt 0.437744 0.031494
vt 0.437744 0.093506
vt 0.468506 0.031494
vt 0.468506 0.093506
s 0
usemtl Cat
f 193/193/49 195/194/49 194/195/49
f 195/194/49 196/196/49 194/195/49
f 197/197/50 199/198/50 198/199/50
f 199/198/50 200/200/50 198/199/50
f 201/201/51 203/202/51 202/203/51
f 203/202/51 204/204/51 202/203/51
f 205/205/52 207/206/52 206/207/52
f 207/206/52 208/208/52 206/207/52
f 209/209/53 211/210/53 210/211/53
f 211/210/53 212/212/53 210/211/53
f 213/213/54 215/214/54 214/215/54
f 215/214/54 216/216/54 214/215/54
o cube.009
v -0.156250 3.906250 15.000000
v -0.156250 3.906250 10.625000
v -0.156250 3.281250 15.000000
v -0.156250 3.281250 10.625000
v -0.781250 3.906250 10.625000
v -0.781250 3.906250 15.000000
v -0.781250 3.281250 10.625000
v -0.781250 3.281250 15.000000
v -0.781250 3.906250 10.625000
v -0.156250 3.906250 10.625000
v -0.781250 3.906250 15.000000
v -0.156250 3.906250 15.000000
v -0.781250 3.281250 15.000000
v -0.156250 3.281250 15.000000
v -0.781250 3.281250 10.625000
v -0.156250 3.281250 10.625000
v -0.781250 3.906250 15.000000
v -0.156250 3.906250 15.000000
v -0.781250 3.281250 15.000000
v -0.156250 3.281250 15.000000
v -0.156250 3.906250 10.625000
v -0.781250 3.906250 10.625000
v -0.156250 3.281250 10.625000
v -0.781250 3.281250 10.625000
vn 1.0000 -0.0000 -0.0000
vn -1.0000 -0.0000 -0.0000
vn -0.0000 1.0000 -0.0000
vn -0.0000 -1.0000 -0.0000
vn -0.0000 -0.0000 1.0000
vn -0.0000 -0.0000 -1.0000
vt 0.000244 0.109619
vt 0.000244 0.124756
vt 0.109131 0.109619
vt 0.109131 0.124756
vt 0.125244 0.109619
vt 0.125244 0.124756
vt 0.234131 0.109619
vt 0.234131 0.124756
vt 0.124756 0.109131
vt 0.124756 0.000244
vt 0.109619 0.109131
vt 0.109619 0.000244
vt 0.140381 0.000244
vt 0.140381 0.109131
vt 0.125244 0.000244
vt 0.125244 0.109131
vt 0.234619 0.109619
vt 0.234619 0.124756
vt 0.249756 0.109619
vt 0.249756 0.124756
vt 0.109619 0.109619
vt 0.109619 0.124756
vt 0.124756 0.109619
vt 0.124756 0.124756
s 0
usemtl Cat
f 217/217/55 219/218/55 218/219/55
f 219/218/55 220/220/55 218/219/55
f 221/221/56 223/222/56 222/223/56
f 223/222/56 224/224/56 222/223/56
f 225/225/57 227/226/57 226/227/57
f 227/226/57 228/228/57 226/227/57
f 229/229/58 231/230/58 230/231/58
f 231/230/58 232/232/58 230/231/58
f 233/233/59 235/234/59 234/235/59
f 235/234/59 236/236/59 234/235/59
f 237/237/60 239/238/60 238/239/60
f 239/238/60 240/240/60 238/239/60
o cube.010
v -0.156250 3.729066 11.012619
v -0.156250 6.229066 6.682492
v -0.156250 3.187800 10.700119
v -0.156250 5.687800 6.369992
v -0.781250 6.229066 6.682492
v -0.781250 3.729066 11.012619
v -0.781250 5.687800 6.369992
v -0.781250 3.187800 10.700119
v -0.781250 6.229066 6.682492
v -0.156250 6.229066 6.682492
v -0.781250 3.729066 11.012619
v -0.156250 3.729066 11.012619
v -0.781250 3.187800 10.700119
v -0.156250 3.187800 10.700119
v -0.781250 5.687800 6.369992
v -0.156250 5.687800 6.369992
v -0.781250 3.729066 11.012619
v -0.156250 3.729066 11.012619
v -0.781250 3.187800 10.700119
v -0.156250 3.187800 10.700119
v -0.156250 6.229066 6.682492
v -0.781250 6.229066 6.682492
v -0.156250 5.687800 6.369992
v -0.781250 5.687800 6.369992
vn 1.0000 -0.0000 -0.0000
vn -1.0000 -0.0000 -0.0000
vn -0.0000 0.8660 0.5000
vn -0.0000 -0.8660 -0.5000
vn -0.0000 -0.5000 0.8660
vn -0.0000 0.5000 -0.8660
vt 0.312744 0.468994
vt 0.312744 0.484131
vt 0.437256 0.468994
vt 0.437256 0.484131
vt 0.453369 0.468994
vt 0.453369 0.484131
vt 0.577881 0.468994
vt 0.577881 0.484131
vt 0.452881 0.468506
vt 0.452881 0.343994
vt 0.437744 0.468506
vt 0.437744 0.343994
vt 0.468506 0.343994
vt 0.468506 0.468506
vt 0.453369 0.343994
vt 0.453369 0.468506
vt 0.578369 0.468994
vt 0.578369 0.484131
vt 0.593506 0.468994
vt 0.593506 0.484131
vt 0.437744 0.468994
vt 0.437744 0.484131
vt 0.452881 0.468994
vt 0.452881 0.484131
s 0
usemtl Cat
f 241/241/61 243/242/61 242/243/61
f 243/242/61 244/244/61 242/243/61
f 245/245/62 247/246/62 246/247/62
f 247/246/62 248/248/62 246/247/62
f 249/249/63 251/250/63 250/251/63
f 251/250/63 252/252/63 250/251/63
f 253/253/64 255/254/64 254/255/64
f 255/254/64 256/256/64 254/255/64
f 257/257/65 259/258/65 258/259/65
f 259/258/65 260/260/65 258/259/65
f 261/261/66 263/262/66 262/263/66
f 263/262/66 264/264/66 262/263/66
